<mxfile host="www.draw.io" modified="2020-02-08T13:39:38.878Z" agent="Mozilla/5.0 (Windows NT 10.0; Win64; x64) AppleWebKit/537.36 (KHTML, like Gecko) Chrome/80.0.3987.87 Safari/537.36" etag="WWApxvpkjpwdtj7I90ha" version="12.6.6" type="github">
  <diagram id="8V74wypXKoyKjCxsadvE" name="Page-1">
    <mxGraphModel dx="1483" dy="713" grid="1" gridSize="10" guides="1" tooltips="1" connect="1" arrows="1" fold="1" page="1" pageScale="1" pageWidth="1200" pageHeight="1920" math="0" shadow="0">
      <root>
        <mxCell id="0"/>
        <mxCell id="1" parent="0"/>
        <mxCell id="b-nBw8n8Qqu6ZaVx6pGk-138" value="n" style="text;html=1;strokeColor=none;fillColor=none;align=center;verticalAlign=middle;whiteSpace=wrap;rounded=0;" parent="1" vertex="1">
          <mxGeometry x="370" y="565" width="40" height="20" as="geometry"/>
        </mxCell>
        <mxCell id="b-nBw8n8Qqu6ZaVx6pGk-79" value="biz_customer&lt;br&gt;(客户表)" style="rounded=1;whiteSpace=wrap;html=1;fillColor=#dae8fc;strokeColor=#6c8ebf;" parent="1" vertex="1">
          <mxGeometry x="170" y="550" width="120" height="60" as="geometry"/>
        </mxCell>
        <mxCell id="b-nBw8n8Qqu6ZaVx6pGk-80" value="手机号" style="ellipse;whiteSpace=wrap;html=1;fillColor=#f5f5f5;strokeColor=#666666;fontColor=#333333;" parent="1" vertex="1">
          <mxGeometry y="470" width="120" height="80" as="geometry"/>
        </mxCell>
        <mxCell id="b-nBw8n8Qqu6ZaVx6pGk-81" value="姓名" style="ellipse;whiteSpace=wrap;html=1;direction=east;fillColor=#f5f5f5;strokeColor=#666666;fontColor=#333333;" parent="1" vertex="1">
          <mxGeometry x="170" y="430" width="120" height="80" as="geometry"/>
        </mxCell>
        <mxCell id="b-nBw8n8Qqu6ZaVx6pGk-82" value="身份证" style="ellipse;whiteSpace=wrap;html=1;fillColor=#f5f5f5;strokeColor=#666666;fontColor=#333333;" parent="1" vertex="1">
          <mxGeometry y="590" width="120" height="80" as="geometry"/>
        </mxCell>
        <mxCell id="b-nBw8n8Qqu6ZaVx6pGk-83" style="edgeStyle=orthogonalEdgeStyle;rounded=0;orthogonalLoop=1;jettySize=auto;html=1;exitX=0.5;exitY=1;exitDx=0;exitDy=0;fillColor=#f5f5f5;strokeColor=#666666;" parent="1" source="b-nBw8n8Qqu6ZaVx6pGk-81" target="b-nBw8n8Qqu6ZaVx6pGk-81" edge="1">
          <mxGeometry relative="1" as="geometry"/>
        </mxCell>
        <mxCell id="b-nBw8n8Qqu6ZaVx6pGk-84" value="" style="endArrow=none;html=1;exitX=0.5;exitY=0;exitDx=0;exitDy=0;entryX=0.5;entryY=1;entryDx=0;entryDy=0;" parent="1" source="b-nBw8n8Qqu6ZaVx6pGk-79" target="b-nBw8n8Qqu6ZaVx6pGk-81" edge="1">
          <mxGeometry width="50" height="50" relative="1" as="geometry">
            <mxPoint x="180" y="590" as="sourcePoint"/>
            <mxPoint x="70" y="510" as="targetPoint"/>
          </mxGeometry>
        </mxCell>
        <mxCell id="b-nBw8n8Qqu6ZaVx6pGk-85" value="" style="endArrow=none;html=1;entryX=0;entryY=0.5;entryDx=0;entryDy=0;exitX=1;exitY=0;exitDx=0;exitDy=0;" parent="1" source="b-nBw8n8Qqu6ZaVx6pGk-82" target="b-nBw8n8Qqu6ZaVx6pGk-79" edge="1">
          <mxGeometry width="50" height="50" relative="1" as="geometry">
            <mxPoint x="210" y="660" as="sourcePoint"/>
            <mxPoint x="260" y="610" as="targetPoint"/>
          </mxGeometry>
        </mxCell>
        <mxCell id="b-nBw8n8Qqu6ZaVx6pGk-86" value="" style="endArrow=none;html=1;entryX=0.971;entryY=0.792;entryDx=0;entryDy=0;exitX=0;exitY=0.5;exitDx=0;exitDy=0;entryPerimeter=0;" parent="1" source="b-nBw8n8Qqu6ZaVx6pGk-79" target="b-nBw8n8Qqu6ZaVx6pGk-80" edge="1">
          <mxGeometry width="50" height="50" relative="1" as="geometry">
            <mxPoint x="240" y="660" as="sourcePoint"/>
            <mxPoint x="240" y="620" as="targetPoint"/>
          </mxGeometry>
        </mxCell>
        <mxCell id="b-nBw8n8Qqu6ZaVx6pGk-87" value="" style="endArrow=none;html=1;exitX=1;exitY=0.5;exitDx=0;exitDy=0;entryX=0;entryY=0.5;entryDx=0;entryDy=0;" parent="1" source="b-nBw8n8Qqu6ZaVx6pGk-79" edge="1">
          <mxGeometry width="50" height="50" relative="1" as="geometry">
            <mxPoint x="290" y="610" as="sourcePoint"/>
            <mxPoint x="340" y="579.9999999999999" as="targetPoint"/>
          </mxGeometry>
        </mxCell>
        <mxCell id="b-nBw8n8Qqu6ZaVx6pGk-88" value="1" style="text;html=1;strokeColor=none;fillColor=none;align=center;verticalAlign=middle;whiteSpace=wrap;rounded=0;" parent="1" vertex="1">
          <mxGeometry x="300" y="560" width="40" height="20" as="geometry"/>
        </mxCell>
        <mxCell id="b-nBw8n8Qqu6ZaVx6pGk-89" value="征信查询" style="rhombus;whiteSpace=wrap;html=1;fillColor=#ffe6cc;strokeColor=#d79b00;" parent="1" vertex="1">
          <mxGeometry x="340" y="540" width="80" height="80" as="geometry"/>
        </mxCell>
        <mxCell id="b-nBw8n8Qqu6ZaVx6pGk-91" value="biz_credit_customer_info&lt;br&gt;(征信查询客户信息表)" style="rounded=1;whiteSpace=wrap;html=1;fillColor=#dae8fc;strokeColor=#6c8ebf;" parent="1" vertex="1">
          <mxGeometry x="450" y="550" width="160" height="60" as="geometry"/>
        </mxCell>
        <mxCell id="b-nBw8n8Qqu6ZaVx6pGk-92" value="订单号" style="ellipse;whiteSpace=wrap;html=1;fillColor=#f5f5f5;strokeColor=#666666;fontColor=#333333;" parent="1" vertex="1">
          <mxGeometry x="385" y="440" width="120" height="80" as="geometry"/>
        </mxCell>
        <mxCell id="b-nBw8n8Qqu6ZaVx6pGk-93" value="客户类型" style="ellipse;whiteSpace=wrap;html=1;fillColor=#f5f5f5;strokeColor=#666666;fontColor=#333333;" parent="1" vertex="1">
          <mxGeometry x="375" y="640" width="120" height="80" as="geometry"/>
        </mxCell>
        <mxCell id="b-nBw8n8Qqu6ZaVx6pGk-94" value="征信状态" style="ellipse;whiteSpace=wrap;html=1;fillColor=#f5f5f5;strokeColor=#666666;fontColor=#333333;" parent="1" vertex="1">
          <mxGeometry x="559.12" y="635" width="120" height="80" as="geometry"/>
        </mxCell>
        <mxCell id="b-nBw8n8Qqu6ZaVx6pGk-95" value="征信报告信息" style="ellipse;whiteSpace=wrap;html=1;fillColor=#f5f5f5;strokeColor=#666666;fontColor=#333333;" parent="1" vertex="1">
          <mxGeometry x="545" y="440" width="120" height="80" as="geometry"/>
        </mxCell>
        <mxCell id="b-nBw8n8Qqu6ZaVx6pGk-96" value="" style="endArrow=none;html=1;exitX=0.5;exitY=0;exitDx=0;exitDy=0;entryX=0.375;entryY=0.999;entryDx=0;entryDy=0;entryPerimeter=0;" parent="1" source="b-nBw8n8Qqu6ZaVx6pGk-93" target="b-nBw8n8Qqu6ZaVx6pGk-91" edge="1">
          <mxGeometry width="50" height="50" relative="1" as="geometry">
            <mxPoint x="415" y="670" as="sourcePoint"/>
            <mxPoint x="465" y="620" as="targetPoint"/>
          </mxGeometry>
        </mxCell>
        <mxCell id="b-nBw8n8Qqu6ZaVx6pGk-97" value="" style="endArrow=none;html=1;entryX=0.75;entryY=1;entryDx=0;entryDy=0;exitX=0.5;exitY=0;exitDx=0;exitDy=0;" parent="1" source="b-nBw8n8Qqu6ZaVx6pGk-94" target="b-nBw8n8Qqu6ZaVx6pGk-91" edge="1">
          <mxGeometry width="50" height="50" relative="1" as="geometry">
            <mxPoint x="-25" y="810" as="sourcePoint"/>
            <mxPoint x="25" y="760" as="targetPoint"/>
          </mxGeometry>
        </mxCell>
        <mxCell id="b-nBw8n8Qqu6ZaVx6pGk-98" value="" style="endArrow=none;html=1;entryX=0.5;entryY=1;entryDx=0;entryDy=0;exitX=0.646;exitY=-0.036;exitDx=0;exitDy=0;exitPerimeter=0;" parent="1" source="b-nBw8n8Qqu6ZaVx6pGk-91" target="b-nBw8n8Qqu6ZaVx6pGk-95" edge="1">
          <mxGeometry width="50" height="50" relative="1" as="geometry">
            <mxPoint x="-25" y="810" as="sourcePoint"/>
            <mxPoint x="25" y="760" as="targetPoint"/>
          </mxGeometry>
        </mxCell>
        <mxCell id="b-nBw8n8Qqu6ZaVx6pGk-99" value="" style="endArrow=none;html=1;entryX=0.5;entryY=1;entryDx=0;entryDy=0;exitX=0.452;exitY=-0.052;exitDx=0;exitDy=0;exitPerimeter=0;" parent="1" source="b-nBw8n8Qqu6ZaVx6pGk-91" target="b-nBw8n8Qqu6ZaVx6pGk-92" edge="1">
          <mxGeometry width="50" height="50" relative="1" as="geometry">
            <mxPoint x="-25" y="810" as="sourcePoint"/>
            <mxPoint x="25" y="760" as="targetPoint"/>
          </mxGeometry>
        </mxCell>
        <mxCell id="b-nBw8n8Qqu6ZaVx6pGk-102" value="inf_credit_platform&lt;br&gt;(征信查询结果明细表)" style="rounded=1;whiteSpace=wrap;html=1;fillColor=#dae8fc;strokeColor=#6c8ebf;" parent="1" vertex="1">
          <mxGeometry x="165" y="750" width="130" height="60" as="geometry"/>
        </mxCell>
        <mxCell id="b-nBw8n8Qqu6ZaVx6pGk-105" value="订单号" style="ellipse;whiteSpace=wrap;html=1;fillColor=#f5f5f5;strokeColor=#666666;fontColor=#333333;" parent="1" vertex="1">
          <mxGeometry y="740" width="120" height="80" as="geometry"/>
        </mxCell>
        <mxCell id="b-nBw8n8Qqu6ZaVx6pGk-106" value="异常个数" style="ellipse;whiteSpace=wrap;html=1;fillColor=#f5f5f5;strokeColor=#666666;fontColor=#333333;" parent="1" vertex="1">
          <mxGeometry x="140" y="880" width="120" height="80" as="geometry"/>
        </mxCell>
        <mxCell id="b-nBw8n8Qqu6ZaVx6pGk-107" value="查询平台" style="ellipse;whiteSpace=wrap;html=1;fillColor=#f5f5f5;strokeColor=#666666;fontColor=#333333;" parent="1" vertex="1">
          <mxGeometry y="880" width="120" height="80" as="geometry"/>
        </mxCell>
        <mxCell id="b-nBw8n8Qqu6ZaVx6pGk-108" value="欺诈分" style="ellipse;whiteSpace=wrap;html=1;fillColor=#f5f5f5;strokeColor=#666666;fontColor=#333333;" parent="1" vertex="1">
          <mxGeometry x="270" y="880" width="120" height="80" as="geometry"/>
        </mxCell>
        <mxCell id="b-nBw8n8Qqu6ZaVx6pGk-109" value="查询结果(是否通过)" style="ellipse;whiteSpace=wrap;html=1;fillColor=#f5f5f5;strokeColor=#666666;fontColor=#333333;" parent="1" vertex="1">
          <mxGeometry x="330" y="740" width="120" height="80" as="geometry"/>
        </mxCell>
        <mxCell id="b-nBw8n8Qqu6ZaVx6pGk-110" value="" style="endArrow=none;html=1;exitX=0.5;exitY=0;exitDx=0;exitDy=0;entryX=0.5;entryY=1;entryDx=0;entryDy=0;" parent="1" source="b-nBw8n8Qqu6ZaVx6pGk-106" target="b-nBw8n8Qqu6ZaVx6pGk-102" edge="1">
          <mxGeometry width="50" height="50" relative="1" as="geometry">
            <mxPoint x="190" y="880" as="sourcePoint"/>
            <mxPoint x="240" y="830" as="targetPoint"/>
          </mxGeometry>
        </mxCell>
        <mxCell id="b-nBw8n8Qqu6ZaVx6pGk-111" value="" style="endArrow=none;html=1;exitX=0.4;exitY=0;exitDx=0;exitDy=0;exitPerimeter=0;entryX=0.652;entryY=1.043;entryDx=0;entryDy=0;entryPerimeter=0;" parent="1" source="b-nBw8n8Qqu6ZaVx6pGk-108" target="b-nBw8n8Qqu6ZaVx6pGk-102" edge="1">
          <mxGeometry width="50" height="50" relative="1" as="geometry">
            <mxPoint x="220" y="880" as="sourcePoint"/>
            <mxPoint x="270" y="830" as="targetPoint"/>
          </mxGeometry>
        </mxCell>
        <mxCell id="b-nBw8n8Qqu6ZaVx6pGk-112" value="" style="endArrow=none;html=1;exitX=-0.01;exitY=0.395;exitDx=0;exitDy=0;exitPerimeter=0;entryX=1;entryY=0.5;entryDx=0;entryDy=0;" parent="1" source="b-nBw8n8Qqu6ZaVx6pGk-109" target="b-nBw8n8Qqu6ZaVx6pGk-102" edge="1">
          <mxGeometry width="50" height="50" relative="1" as="geometry">
            <mxPoint x="230" y="760" as="sourcePoint"/>
            <mxPoint x="280" y="710" as="targetPoint"/>
          </mxGeometry>
        </mxCell>
        <mxCell id="b-nBw8n8Qqu6ZaVx6pGk-113" value="" style="endArrow=none;html=1;exitX=0.677;exitY=0.011;exitDx=0;exitDy=0;entryX=0.25;entryY=1;entryDx=0;entryDy=0;exitPerimeter=0;" parent="1" source="b-nBw8n8Qqu6ZaVx6pGk-107" target="b-nBw8n8Qqu6ZaVx6pGk-102" edge="1">
          <mxGeometry width="50" height="50" relative="1" as="geometry">
            <mxPoint x="180" y="890" as="sourcePoint"/>
            <mxPoint x="235" y="841" as="targetPoint"/>
          </mxGeometry>
        </mxCell>
        <mxCell id="b-nBw8n8Qqu6ZaVx6pGk-114" value="" style="endArrow=none;html=1;exitX=0;exitY=0.5;exitDx=0;exitDy=0;entryX=1;entryY=0.5;entryDx=0;entryDy=0;" parent="1" source="b-nBw8n8Qqu6ZaVx6pGk-102" target="b-nBw8n8Qqu6ZaVx6pGk-105" edge="1">
          <mxGeometry width="50" height="50" relative="1" as="geometry">
            <mxPoint x="190" y="900" as="sourcePoint"/>
            <mxPoint x="245" y="851" as="targetPoint"/>
          </mxGeometry>
        </mxCell>
        <mxCell id="b-nBw8n8Qqu6ZaVx6pGk-117" value="" style="endArrow=none;html=1;entryX=0.5;entryY=1;entryDx=0;entryDy=0;" parent="1" target="b-nBw8n8Qqu6ZaVx6pGk-79" edge="1">
          <mxGeometry width="50" height="50" relative="1" as="geometry">
            <mxPoint x="230" y="640" as="sourcePoint"/>
            <mxPoint x="240" y="690" as="targetPoint"/>
          </mxGeometry>
        </mxCell>
        <mxCell id="b-nBw8n8Qqu6ZaVx6pGk-118" value="导入征信报告" style="rhombus;whiteSpace=wrap;html=1;fillColor=#ffe6cc;strokeColor=#d79b00;" parent="1" vertex="1">
          <mxGeometry x="170" y="640" width="120" height="70" as="geometry"/>
        </mxCell>
        <mxCell id="b-nBw8n8Qqu6ZaVx6pGk-119" value="" style="endArrow=none;html=1;entryX=0.5;entryY=1;entryDx=0;entryDy=0;exitX=0.5;exitY=0;exitDx=0;exitDy=0;" parent="1" source="b-nBw8n8Qqu6ZaVx6pGk-102" target="b-nBw8n8Qqu6ZaVx6pGk-118" edge="1">
          <mxGeometry width="50" height="50" relative="1" as="geometry">
            <mxPoint x="240" y="650" as="sourcePoint"/>
            <mxPoint x="240" y="620" as="targetPoint"/>
          </mxGeometry>
        </mxCell>
        <mxCell id="b-nBw8n8Qqu6ZaVx6pGk-120" value="1" style="text;html=1;strokeColor=none;fillColor=none;align=center;verticalAlign=middle;whiteSpace=wrap;rounded=0;" parent="1" vertex="1">
          <mxGeometry x="220" y="615" width="40" height="20" as="geometry"/>
        </mxCell>
        <mxCell id="b-nBw8n8Qqu6ZaVx6pGk-121" value="n" style="text;html=1;strokeColor=none;fillColor=none;align=center;verticalAlign=middle;whiteSpace=wrap;rounded=0;" parent="1" vertex="1">
          <mxGeometry x="220" y="715" width="40" height="20" as="geometry"/>
        </mxCell>
        <mxCell id="b-nBw8n8Qqu6ZaVx6pGk-123" value="biz_credit_order_info&lt;br&gt;(征信订单信息表)" style="rounded=1;whiteSpace=wrap;html=1;fillColor=#dae8fc;strokeColor=#6c8ebf;" parent="1" vertex="1">
          <mxGeometry x="780.88" y="550" width="120" height="60" as="geometry"/>
        </mxCell>
        <mxCell id="b-nBw8n8Qqu6ZaVx6pGk-124" value="包含" style="rhombus;whiteSpace=wrap;html=1;fillColor=#ffe6cc;strokeColor=#d79b00;" parent="1" vertex="1">
          <mxGeometry x="660" y="540" width="80" height="80" as="geometry"/>
        </mxCell>
        <mxCell id="b-nBw8n8Qqu6ZaVx6pGk-126" value="" style="endArrow=none;html=1;entryX=0;entryY=0.5;entryDx=0;entryDy=0;exitX=1;exitY=0.5;exitDx=0;exitDy=0;" parent="1" source="b-nBw8n8Qqu6ZaVx6pGk-123" edge="1">
          <mxGeometry width="50" height="50" relative="1" as="geometry">
            <mxPoint x="920.88" y="580" as="sourcePoint"/>
            <mxPoint x="960.88" y="580" as="targetPoint"/>
          </mxGeometry>
        </mxCell>
        <mxCell id="b-nBw8n8Qqu6ZaVx6pGk-127" value="" style="endArrow=none;html=1;exitX=1;exitY=0.5;exitDx=0;exitDy=0;" parent="1" edge="1">
          <mxGeometry width="50" height="50" relative="1" as="geometry">
            <mxPoint x="740.88" y="580" as="sourcePoint"/>
            <mxPoint x="780.88" y="580" as="targetPoint"/>
          </mxGeometry>
        </mxCell>
        <mxCell id="b-nBw8n8Qqu6ZaVx6pGk-131" value="" style="endArrow=none;html=1;exitX=0;exitY=0.5;exitDx=0;exitDy=0;entryX=1;entryY=0.5;entryDx=0;entryDy=0;" parent="1" source="b-nBw8n8Qqu6ZaVx6pGk-91" target="b-nBw8n8Qqu6ZaVx6pGk-89" edge="1">
          <mxGeometry width="50" height="50" relative="1" as="geometry">
            <mxPoint x="905.88" y="735" as="sourcePoint"/>
            <mxPoint x="985.88" y="685" as="targetPoint"/>
          </mxGeometry>
        </mxCell>
        <mxCell id="b-nBw8n8Qqu6ZaVx6pGk-139" value="1" style="text;html=1;strokeColor=none;fillColor=none;align=center;verticalAlign=middle;whiteSpace=wrap;rounded=0;" parent="1" vertex="1">
          <mxGeometry x="920.88" y="560" width="40" height="20" as="geometry"/>
        </mxCell>
        <mxCell id="b-nBw8n8Qqu6ZaVx6pGk-141" value="rel_credit_customer_files&lt;br&gt;(征信上传文件信息表)" style="rounded=1;whiteSpace=wrap;html=1;fillColor=#dae8fc;strokeColor=#6c8ebf;" parent="1" vertex="1">
          <mxGeometry x="930.88" y="770" width="150" height="55" as="geometry"/>
        </mxCell>
        <mxCell id="b-nBw8n8Qqu6ZaVx6pGk-143" value="订单号" style="ellipse;whiteSpace=wrap;html=1;fillColor=#f5f5f5;strokeColor=#666666;fontColor=#333333;" parent="1" vertex="1">
          <mxGeometry x="850.88" y="865" width="120" height="80" as="geometry"/>
        </mxCell>
        <mxCell id="b-nBw8n8Qqu6ZaVx6pGk-144" value="" style="endArrow=none;html=1;entryX=0.5;entryY=1;entryDx=0;entryDy=0;exitX=0.5;exitY=0;exitDx=0;exitDy=0;" parent="1" source="b-nBw8n8Qqu6ZaVx6pGk-143" target="b-nBw8n8Qqu6ZaVx6pGk-141" edge="1">
          <mxGeometry width="50" height="50" relative="1" as="geometry">
            <mxPoint x="1091.76" y="875" as="sourcePoint"/>
            <mxPoint x="1141.76" y="825" as="targetPoint"/>
          </mxGeometry>
        </mxCell>
        <mxCell id="b-nBw8n8Qqu6ZaVx6pGk-145" value="文件信息" style="ellipse;whiteSpace=wrap;html=1;fillColor=#f5f5f5;strokeColor=#666666;fontColor=#333333;" parent="1" vertex="1">
          <mxGeometry x="1021.76" y="865" width="120" height="80" as="geometry"/>
        </mxCell>
        <mxCell id="b-nBw8n8Qqu6ZaVx6pGk-146" value="" style="endArrow=none;html=1;exitX=0.5;exitY=0;exitDx=0;exitDy=0;entryX=0.5;entryY=1;entryDx=0;entryDy=0;" parent="1" source="b-nBw8n8Qqu6ZaVx6pGk-145" target="b-nBw8n8Qqu6ZaVx6pGk-141" edge="1">
          <mxGeometry width="50" height="50" relative="1" as="geometry">
            <mxPoint x="920.8799999999999" y="875" as="sourcePoint"/>
            <mxPoint x="1001.76" y="830" as="targetPoint"/>
          </mxGeometry>
        </mxCell>
        <mxCell id="b-nBw8n8Qqu6ZaVx6pGk-148" value="订单号" style="ellipse;whiteSpace=wrap;html=1;fillColor=#f5f5f5;strokeColor=#666666;fontColor=#333333;" parent="1" vertex="1">
          <mxGeometry x="700.88" y="435" width="120" height="80" as="geometry"/>
        </mxCell>
        <mxCell id="b-nBw8n8Qqu6ZaVx6pGk-149" value="贷款金额" style="ellipse;whiteSpace=wrap;html=1;fillColor=#f5f5f5;strokeColor=#666666;fontColor=#333333;" parent="1" vertex="1">
          <mxGeometry x="720.88" y="630" width="120" height="80" as="geometry"/>
        </mxCell>
        <mxCell id="b-nBw8n8Qqu6ZaVx6pGk-150" value="n" style="text;html=1;strokeColor=none;fillColor=none;align=center;verticalAlign=middle;whiteSpace=wrap;rounded=0;" parent="1" vertex="1">
          <mxGeometry x="670" y="660" width="40" height="20" as="geometry"/>
        </mxCell>
        <mxCell id="b-nBw8n8Qqu6ZaVx6pGk-151" value="经办银行" style="ellipse;whiteSpace=wrap;html=1;fillColor=#f5f5f5;strokeColor=#666666;fontColor=#333333;" parent="1" vertex="1">
          <mxGeometry x="850.88" y="630" width="120" height="80" as="geometry"/>
        </mxCell>
        <mxCell id="b-nBw8n8Qqu6ZaVx6pGk-152" value="签约方式" style="ellipse;whiteSpace=wrap;html=1;fillColor=#f5f5f5;strokeColor=#666666;fontColor=#333333;" parent="1" vertex="1">
          <mxGeometry x="840.88" y="435" width="120" height="80" as="geometry"/>
        </mxCell>
        <mxCell id="b-nBw8n8Qqu6ZaVx6pGk-154" value="" style="endArrow=none;html=1;exitX=0.5;exitY=0;exitDx=0;exitDy=0;entryX=0.75;entryY=1;entryDx=0;entryDy=0;" parent="1" source="b-nBw8n8Qqu6ZaVx6pGk-151" target="b-nBw8n8Qqu6ZaVx6pGk-123" edge="1">
          <mxGeometry width="50" height="50" relative="1" as="geometry">
            <mxPoint x="650.88" y="530" as="sourcePoint"/>
            <mxPoint x="700.88" y="480" as="targetPoint"/>
          </mxGeometry>
        </mxCell>
        <mxCell id="b-nBw8n8Qqu6ZaVx6pGk-155" value="" style="endArrow=none;html=1;exitX=0.769;exitY=0.067;exitDx=0;exitDy=0;exitPerimeter=0;entryX=0.432;entryY=1.046;entryDx=0;entryDy=0;entryPerimeter=0;" parent="1" source="b-nBw8n8Qqu6ZaVx6pGk-149" target="b-nBw8n8Qqu6ZaVx6pGk-123" edge="1">
          <mxGeometry width="50" height="50" relative="1" as="geometry">
            <mxPoint x="770.88" y="650" as="sourcePoint"/>
            <mxPoint x="820.88" y="600" as="targetPoint"/>
          </mxGeometry>
        </mxCell>
        <mxCell id="b-nBw8n8Qqu6ZaVx6pGk-156" value="" style="endArrow=none;html=1;entryX=0.5;entryY=1;entryDx=0;entryDy=0;" parent="1" target="b-nBw8n8Qqu6ZaVx6pGk-152" edge="1">
          <mxGeometry width="50" height="50" relative="1" as="geometry">
            <mxPoint x="850.88" y="550" as="sourcePoint"/>
            <mxPoint x="880.88" y="530" as="targetPoint"/>
          </mxGeometry>
        </mxCell>
        <mxCell id="b-nBw8n8Qqu6ZaVx6pGk-157" value="" style="endArrow=none;html=1;exitX=0.25;exitY=0;exitDx=0;exitDy=0;entryX=0.5;entryY=1;entryDx=0;entryDy=0;" parent="1" source="b-nBw8n8Qqu6ZaVx6pGk-123" target="b-nBw8n8Qqu6ZaVx6pGk-148" edge="1">
          <mxGeometry width="50" height="50" relative="1" as="geometry">
            <mxPoint x="670.88" y="560" as="sourcePoint"/>
            <mxPoint x="720.88" y="510" as="targetPoint"/>
          </mxGeometry>
        </mxCell>
        <mxCell id="b-nBw8n8Qqu6ZaVx6pGk-158" value="1" style="text;html=1;strokeColor=none;fillColor=none;align=center;verticalAlign=middle;whiteSpace=wrap;rounded=0;" parent="1" vertex="1">
          <mxGeometry x="740.88" y="560" width="40" height="20" as="geometry"/>
        </mxCell>
        <mxCell id="B4QAFo7icg7aVBGsnQiZ-1" value="" style="endArrow=none;html=1;exitX=1;exitY=0.5;exitDx=0;exitDy=0;entryX=0;entryY=0.5;entryDx=0;entryDy=0;" edge="1" parent="1" source="b-nBw8n8Qqu6ZaVx6pGk-91" target="b-nBw8n8Qqu6ZaVx6pGk-124">
          <mxGeometry width="50" height="50" relative="1" as="geometry">
            <mxPoint x="660" y="560" as="sourcePoint"/>
            <mxPoint x="710" y="510" as="targetPoint"/>
          </mxGeometry>
        </mxCell>
        <mxCell id="B4QAFo7icg7aVBGsnQiZ-2" value="1" style="text;html=1;strokeColor=none;fillColor=none;align=center;verticalAlign=middle;whiteSpace=wrap;rounded=0;" vertex="1" parent="1">
          <mxGeometry x="620" y="560" width="40" height="20" as="geometry"/>
        </mxCell>
        <mxCell id="B4QAFo7icg7aVBGsnQiZ-3" value="包含" style="rhombus;whiteSpace=wrap;html=1;fillColor=#ffe6cc;strokeColor=#d79b00;" vertex="1" parent="1">
          <mxGeometry x="960.88" y="540" width="80" height="80" as="geometry"/>
        </mxCell>
        <mxCell id="B4QAFo7icg7aVBGsnQiZ-4" value="" style="endArrow=none;html=1;entryX=0.5;entryY=1;entryDx=0;entryDy=0;" edge="1" parent="1" target="B4QAFo7icg7aVBGsnQiZ-3">
          <mxGeometry width="50" height="50" relative="1" as="geometry">
            <mxPoint x="1001" y="770" as="sourcePoint"/>
            <mxPoint x="710" y="630" as="targetPoint"/>
          </mxGeometry>
        </mxCell>
        <mxCell id="B4QAFo7icg7aVBGsnQiZ-5" value="n" style="text;html=1;strokeColor=none;fillColor=none;align=center;verticalAlign=middle;whiteSpace=wrap;rounded=0;" vertex="1" parent="1">
          <mxGeometry x="1000.88" y="665" width="40" height="20" as="geometry"/>
        </mxCell>
      </root>
    </mxGraphModel>
  </diagram>
</mxfile>
